REM DIRINDEX 1\2,1\3,1\4,1\5,1\6
REM DIRNAME folder01,folder02,folder03,folder04,folder05,folder06
TITLE ""
FILE "Disc4Track60.mp3" MP3
  TRACK 01 AUDIO
    TITLE "3:cjc030_07843"
    INDEX 01 00:00:00
  TRACK 02 AUDIO
    TITLE "0:"
    INDEX 01 00:01:03
  TRACK 03 AUDIO
    TITLE "4:cjc030_07844"
    INDEX 01 00:01:13
  TRACK 04 AUDIO
    TITLE "0:"
    INDEX 01 00:02:71
  TRACK 05 AUDIO
    TITLE "5:cjc030_07845"
    INDEX 01 00:03:06
  TRACK 06 AUDIO
    TITLE "0:"
    INDEX 01 00:04:09
  TRACK 07 AUDIO
    TITLE "6:cjc030_07846"
    INDEX 01 00:04:23
  TRACK 08 AUDIO
    TITLE "0:"
    INDEX 01 00:05:73
  TRACK 09 AUDIO
    TITLE "3:cjc030_07847"
    INDEX 01 00:06:47
  TRACK 10 AUDIO
    TITLE "0:"
    INDEX 01 00:07:51
  TRACK 11 AUDIO
    TITLE "4:cjc030_07848"
    INDEX 01 00:07:58
  TRACK 12 AUDIO
    TITLE "0:"
    INDEX 01 00:08:60
  TRACK 13 AUDIO
    TITLE "5:cjc030_07849"
    INDEX 01 00:08:66
  TRACK 14 AUDIO
    TITLE "0:"
    INDEX 01 00:09:69
  TRACK 15 AUDIO
    TITLE "6:cjc030_07850"
    INDEX 01 00:10:08
  TRACK 16 AUDIO
    TITLE "0:"
    INDEX 01 00:12:14
  TRACK 17 AUDIO
    TITLE "3:cjc030_07851"
    INDEX 01 00:12:61
  TRACK 18 AUDIO
    TITLE "0:"
    INDEX 01 00:13:73
  TRACK 19 AUDIO
    TITLE "4:cjc030_07852"
    INDEX 01 00:14:07
  TRACK 20 AUDIO
    TITLE "0:"
    INDEX 01 00:15:44
  TRACK 21 AUDIO
    TITLE "5:cjc030_07853"
    INDEX 01 00:15:52
  TRACK 22 AUDIO
    TITLE "0:"
    INDEX 01 00:16:63
  TRACK 23 AUDIO
    TITLE "3:cjc030_07854"
    INDEX 01 00:17:49
  TRACK 24 AUDIO
    TITLE "0:"
    INDEX 01 00:18:68
  TRACK 25 AUDIO
    TITLE "4:cjc030_07855"
    INDEX 01 00:19:03
  TRACK 26 AUDIO
    TITLE "0:"
    INDEX 01 00:21:08
  TRACK 27 AUDIO
    TITLE "5:cjc030_07856"
    INDEX 01 00:21:15
  TRACK 28 AUDIO
    TITLE "0:"
    INDEX 01 00:22:34
  TRACK 29 AUDIO
    TITLE "6:cjc030_07857"
    INDEX 01 00:22:44
  TRACK 30 AUDIO
    TITLE "0:"
    INDEX 01 00:27:22
  TRACK 31 AUDIO
    TITLE "3:cjc030_07858"
    INDEX 01 00:27:69
  TRACK 32 AUDIO
    TITLE "0:"
    INDEX 01 00:29:19
  TRACK 33 AUDIO
    TITLE "4:cjc030_07859"
    INDEX 01 00:29:27
  TRACK 34 AUDIO
    TITLE "0:"
    INDEX 01 00:30:20
  TRACK 35 AUDIO
    TITLE "5:cjc030_07860"
    INDEX 01 00:30:30
  TRACK 36 AUDIO
    TITLE "0:"
    INDEX 01 00:31:55
  TRACK 37 AUDIO
    TITLE "3:cjc030_07861"
    INDEX 01 00:32:35
  TRACK 38 AUDIO
    TITLE "0:"
    INDEX 01 00:33:40
  TRACK 39 AUDIO
    TITLE "4:cjc030_07862"
    INDEX 01 00:33:48
  TRACK 40 AUDIO
    TITLE "0:"
    INDEX 01 00:34:40
  TRACK 41 AUDIO
    TITLE "5:cjc030_07863"
    INDEX 01 00:34:49
  TRACK 42 AUDIO
    TITLE "0:"
    INDEX 01 00:35:51
  TRACK 43 AUDIO
    TITLE "6:cjc030_07864"
    INDEX 01 00:35:66
  TRACK 44 AUDIO
    TITLE "0:"
    INDEX 01 00:40:48
  TRACK 45 AUDIO
    TITLE "3:cjc030_07865"
    INDEX 01 00:41:28
  TRACK 46 AUDIO
    TITLE "0:"
    INDEX 01 00:42:27
  TRACK 47 AUDIO
    TITLE "4:cjc030_07866"
    INDEX 01 00:42:37
  TRACK 48 AUDIO
    TITLE "0:"
    INDEX 01 00:43:37
  TRACK 49 AUDIO
    TITLE "5:cjc030_07867"
    INDEX 01 00:43:42
  TRACK 50 AUDIO
    TITLE "0:"
    INDEX 01 00:44:48
  TRACK 51 AUDIO
    TITLE "3:cjc030_07868"
    INDEX 01 00:45:30
  TRACK 52 AUDIO
    TITLE "0:"
    INDEX 01 00:46:25
  TRACK 53 AUDIO
    TITLE "4:cjc030_07869"
    INDEX 01 00:46:39
  TRACK 54 AUDIO
    TITLE "0:"
    INDEX 01 00:47:52
  TRACK 55 AUDIO
    TITLE "5:cjc030_07870"
    INDEX 01 00:47:60
  TRACK 56 AUDIO
    TITLE "0:"
    INDEX 01 00:48:57
  TRACK 57 AUDIO
    TITLE "6:cjc030_07871"
    INDEX 01 00:48:69
  TRACK 58 AUDIO
    TITLE "0:"
    INDEX 01 00:53:58
  TRACK 59 AUDIO
    TITLE "3:cjc030_07872"
    INDEX 01 00:54:30
  TRACK 60 AUDIO
    TITLE "0:"
    INDEX 01 00:55:50
  TRACK 61 AUDIO
    TITLE "4:cjc030_07873"
    INDEX 01 00:55:57
  TRACK 62 AUDIO
    TITLE "0:"
    INDEX 01 00:56:57
  TRACK 63 AUDIO
    TITLE "5:cjc030_07874"
    INDEX 01 00:56:67
  TRACK 64 AUDIO
    TITLE "0:"
    INDEX 01 00:58:09
  TRACK 65 AUDIO
    TITLE "6:cjc030_07875"
    INDEX 01 00:58:20
  TRACK 66 AUDIO
    TITLE "0:"
    INDEX 01 01:03:04
  TRACK 67 AUDIO
    TITLE "3:cjc030_07876"
    INDEX 01 01:03:53
  TRACK 68 AUDIO
    TITLE "0:"
    INDEX 01 01:04:56
  TRACK 69 AUDIO
    TITLE "4:cjc030_07877"
    INDEX 01 01:04:64
  TRACK 70 AUDIO
    TITLE "0:"
    INDEX 01 01:07:25
  TRACK 71 AUDIO
    TITLE "5:cjc030_07878"
    INDEX 01 01:07:33
  TRACK 72 AUDIO
    TITLE "0:"
    INDEX 01 01:08:36
  TRACK 73 AUDIO
    TITLE "6:cjc030_07879"
    INDEX 01 01:08:48
  TRACK 74 AUDIO
    TITLE "0:"
    INDEX 01 01:10:69
